<svg width="130" height="130" viewBox="0 0 130 130" fill="none" xmlns="http://www.w3.org/2000/svg">
<circle cx="65" cy="65" r="60" stroke="white" stroke-width="10"/>
<path d="M65.375 45.75C70.5527 45.75 74.75 41.5527 74.75 36.375C74.75 31.1973 70.5527 27 65.375 27C60.1973 27 56 31.1973 56 36.375C56 41.5527 60.1973 45.75 65.375 45.75Z" fill="white"/>
<path d="M71.375 55.125H59.1875C58.6697 55.125 58.25 55.5447 58.25 56.0625V101.062C58.25 101.58 58.6697 102 59.1875 102H71.375C71.8928 102 72.3125 101.58 72.3125 101.062V56.0625C72.3125 55.5447 71.8928 55.125 71.375 55.125Z" fill="white"/>
</svg>
