<svg xmlns="http://www.w3.org/2000/svg" width="16.114" height="15.558" viewBox="0 0 16.114 15.558"><path d="M6.1,5.111h8.789v5.445h1.1V5.111A1.105,1.105,0,0,0,14.888,4H6.1A1.105,1.105,0,0,0,5,5.111V18.447a1.105,1.105,0,0,0,1.1,1.111h8.789a1.105,1.105,0,0,0,1.1-1.111H6.1Z" transform="translate(-5 -4)" fill="#7d7d7d"/><path d="M24.54,17.216a.732.732,0,0,0-1.033,1.033l2.476,2.424H15.362a.732.732,0,0,0,0,1.465h10.62l-2.476,2.534A.732.732,0,1,0,24.54,25.7l4.277-4.248Z" transform="translate(-12.704 -12.439)" fill="#7d7d7d"/></svg>