<svg xmlns="http://www.w3.org/2000/svg" width="15.95" height="15.95" viewBox="0 0 15.95 15.95"><g transform="translate(-4.5 -4.5)"><path d="M6.494,4.5V18.457h.665V5.165H19.786v14a.617.617,0,0,1-.617.617H5.782a.617.617,0,0,1-.617-.617V7.158h.665V6.494H4.5V19.169A1.283,1.283,0,0,0,5.782,20.45H19.169a1.283,1.283,0,0,0,1.281-1.282V4.5Z" transform="translate(0 0)" fill="#7d7d7d"/><path d="M11.25,7.875h5.317V8.54H11.25Z" transform="translate(-2.762 -1.381)" fill="#7d7d7d"/><path d="M11.25,13.5h9.969v.665H11.25Z" transform="translate(-2.762 -3.683)" fill="#7d7d7d"/><path d="M11.25,19.125h7.975v.665H11.25Z" transform="translate(-2.762 -5.985)" fill="#7d7d7d"/><path d="M11.25,24.75h9.969v.665H11.25Z" transform="translate(-2.762 -8.287)" fill="#7d7d7d"/></g></svg>