<svg xmlns="http://www.w3.org/2000/svg" width="16.114" height="16.091" viewBox="0 0 16.114 16.091"><path d="M13.169,2.25A5.172,5.172,0,0,0,8,7.422a5.1,5.1,0,0,0,.224,1.5L2.25,14.893v3.448H5.7l5.971-5.971a5.172,5.172,0,0,0,6.672-4.523A5.04,5.04,0,0,0,17.393,4.4,5.172,5.172,0,0,0,13.169,2.25Zm0,9.2a4.023,4.023,0,0,1-1.149-.172l-.661-.2-.488.488L9.043,13.388l-.81-.793-.81.81.793.793-.914.914-.793-.793-.81.81.793.793-1.27,1.27H3.4V15.37L9.031,9.721l.488-.488-.167-.546a4.1,4.1,0,0,1,1.954-4.85,4.023,4.023,0,0,1,5.885,3.448,3.845,3.845,0,0,1-.626,2.3,4.023,4.023,0,0,1-3.4,1.862Z" transform="translate(-2.25 -2.25)" fill="#7d7d7d"/><path d="M24.8,10.149A1.149,1.149,0,1,1,23.649,9,1.149,1.149,0,0,1,24.8,10.149Z" transform="translate(-12.156 -5.552)" fill="#7d7d7d"/></svg>