<svg xmlns="http://www.w3.org/2000/svg" width="25.483" height="29.403" viewBox="0 0 25.483 29.403">
  <g id="avatar-line" transform="translate(-5 -3)">
    <path id="패스_2113" data-name="패스 2113" d="M17.861,16.721A6.861,6.861,0,1,0,11,9.861a6.861,6.861,0,0,0,6.861,6.861Zm0-11.761a4.9,4.9,0,1,1-4.9,4.9A4.9,4.9,0,0,1,17.861,4.96Z" transform="translate(-0.119)" fill="#fff"/>
    <path id="패스_2114" data-name="패스 2114" d="M29.963,24.263a16.819,16.819,0,0,0-24.434,0A1.96,1.96,0,0,0,5,25.606v5.155a1.96,1.96,0,0,0,1.96,1.96H28.522a1.96,1.96,0,0,0,1.96-1.96V25.606A1.96,1.96,0,0,0,29.963,24.263Zm-1.441,6.5H6.96V25.6a14.868,14.868,0,0,1,21.562,0Z" transform="translate(0 -0.318)" fill="#fff"/>
  </g>
</svg>
